Patient4_TMGait_0pt2_01_left_11_EMG.mot
version=1
nRows=33
nColumns=33
inDegrees=no
endheader
time	1LAddLong	2LGlutMax	3LGlutMed	4LIliopsoas	5LSemiMemb	6LBicFemLong	7LRecFem	8LVastMed	9LVastLat	10LGasMed	11LTibAnt	12lTibPost	13LPeroneusLong	14LSol	15LExtDigLong	16LFlexDigLong	17RAddLong	18RGlutMax	19RGlutMed	20RIliopsoas	21RSemiMemb	22RBicFemLong	23RRecFem	24RVastMed	25RVastLat	26RGasMed	27RTibAnt	28RTibPost	29RPeroneusLong	30RSol	31RExtDigLong	32RFlexDigLong
24.63	-0.001526	-0.023346	0.042267	-0.006561	-0.002747	0.014038	-0.061188	0.005341	-0.03952	0.068359	-0.005646	-0.20783	0.060577	-0.21942	-0.044403	-0.076141	0.069275	-0.082245	-0.027008	0.047913	0.002289	0.2533	0.11932	-0.19592	-0.13825	0.002594	-0.032043	-0.00885	-0.041656	-0.046692	0.000763	-0.014954
24.631	0	-0.057068	0.055542	-0.003815	-0.006104	0.007172	0.011902	0.005493	-0.062866	0.030975	0.007629	0.059052	-0.21179	-0.6633	-0.015869	0.16068	0.10239	-0.023346	0.25162	0.04425	-0.12238	0.40009	0.14465	-0.15015	-0.12161	-0.006104	0.060883	-0.014801	-0.63568	0.001984	-0.001373	-0.018311
24.632	-0.001526	-0.052643	0.033264	0.010681	-0.010223	0.035553	0.033722	0.016174	-0.077057	0.16113	-0.009308	-0.032501	-0.067291	-1.1046	-0.026398	0.22873	0.072479	-0.036316	0.29968	0.046387	-0.079651	0.34958	0.074005	-0.18829	-0.096436	0.00061	0.043335	-0.003967	0.79804	0.014343	0.002899	-0.007172
24.633	0.001984	-0.082855	0.032806	0.018005	-0.011292	0.013428	0.029907	0.01236	-0.090027	0.12039	-0.017242	-0.27832	-0.067291	-1.2842	-0.021515	0.3157	-0.029297	0.015564	-0.03952	0.044556	-0.093231	0.51025	-0.004578	-0.007172	-0.082855	0.000305	0.03067	-0.005798	0.38956	-0.086823	0.000305	-0.009155
24.634	0.003357	-0.11734	0.028534	0.013123	-0.010376	0.016174	0.035095	0.009766	-0.080566	0.06546	-0.001221	0.15427	0.049744	-0.60547	-0.052338	0.13657	-0.082245	-0.022278	-0.006866	-0.002899	-0.032654	0.27161	-0.099487	0.23392	0.11292	0.001526	0.025024	-0.004425	0.07843	-0.052795	0.001373	-0.009766
24.635	-0.001221	-0.11841	0.030212	0.006104	-0.00412	0.026703	0.050354	0.009766	-0.089722	-0.040741	-0.000305	0.12482	0.044403	-0.31464	-0.028534	-0.032043	-0.080872	-0.000458	0.30594	0.002594	0.14832	0.18784	-0.039978	0.28702	0.33814	0.006866	0.15198	-0.004578	-0.13596	-0.001984	-0.003967	-0.011749
24.636	-0.001373	-0.13199	-0.008545	-0.00351	-0.003815	0.011902	0.066071	0.006409	-0.088501	-0.029144	-0.001221	-0.011902	-0.14954	-0.18921	-0.034332	0.080566	-0.05722	0.014496	0.20142	-0.019836	-0.023499	0.092621	0.039063	0.1741	0.30746	0.016632	0.071106	-0.004272	0.46539	-0.01709	0.002747	-0.011749
24.637	-0.003052	-0.15442	-0.002441	-0.006561	-0.009613	0.015411	0.038605	0.007324	-0.092773	0.013123	0.006409	-0.043182	0.025482	-0.09491	0.039063	-0.28946	-0.02182	0.057983	0.18402	-0.026093	0.028992	-0.053711	0.10162	0.041351	0.29343	-0.037537	0.048828	-0.007477	0.94849	-0.021973	0.003204	-0.007629
24.638	0.001678	-0.15335	-0.000458	0.005035	-0.006866	0.016022	-0.014954	0.003357	-0.079041	0.027161	0.000916	-0.057678	0.42572	-0.070648	0.049286	0.041351	-0.010376	0.037994	0.18188	-0.076752	0.078888	-0.095673	0.13977	0.1738	0.41306	-0.00473	0.046387	-0.006409	1.1636	-0.11948	0.006409	-0.020447
24.639	0.006104	-0.16602	-0.013275	0.017242	-0.007782	0.007782	-0.10681	0.015259	-0.06485	-0.003967	-0.013733	-0.053253	0.18967	-0.02655	0.011139	0.002441	-0.02243	-0.010834	0.012817	-0.12497	0.067596	-0.066681	0.19669	0.1178	0.33768	0.036774	-0.16098	-0.008087	0.29327	-0.13001	0.001526	-0.011749
24.64	0.00885	-0.12741	0.024414	0.001984	-0.002136	0.020447	-0.080414	0.017853	-0.052948	-0.072784	-0.02533	-0.053864	0.029755	0.088196	0.00061	-0.025024	-0.013733	-0.002441	0.004578	-0.14633	0.043793	0.084076	0.096283	-0.027618	0.17349	0.028687	0.072937	-0.011139	-1.9958	-0.081177	0.001221	-0.014954
24.641	0.011444	-0.15228	0.01236	0.002747	-0.005341	0.032654	-0.025482	0.009766	-0.052643	-0.11231	-0.016174	-0.051117	-0.027161	0.16998	-0.012512	-0.051117	0.010223	0.074005	-0.024567	-0.076141	0.019684	0.097656	-0.25543	-0.041809	-0.08667	0.022888	0.28061	-0.016479	-1.8726	0.047455	0.002289	-0.012054
24.642	0.003052	-0.12695	-0.014954	0.016022	-0.00885	0.001221	-0.019531	0.022888	-0.065765	-0.10315	-0.007172	-0.042572	-0.17105	0.29755	0.0177	-0.076294	0.029297	0.068359	-0.1004	0.073395	-0.021057	-0.050201	-0.2301	-0.35934	-0.052948	0.006714	0.11658	-0.013885	-0.37308	0.10559	0.005035	-0.014954
24.643	0.012207	-0.18372	0.029297	0.00824	-0.00412	-0.002441	-0.027008	0.026093	-0.044861	-0.058289	0.000763	-0.016937	0.056458	-0.10117	0.018463	-0.023041	0.040894	0.000763	0.07431	0.093689	-0.025024	-0.076752	-0.2829	-0.41077	-0.022583	-0.019836	-0.078583	-0.018768	1.1423	0.095673	0.002136	-0.018921
24.644	0.014343	-0.20615	-0.01358	0.022583	-0.01297	0.008392	-0.036621	0.024567	-0.054169	0.059967	0.001678	-0.028839	-0.12436	-0.18799	0.010376	-0.20325	0.033875	-0.004272	0.4985	0.048218	-0.022125	-0.079956	-0.271	-0.17014	-0.057068	-0.028839	-0.17548	-0.000916	2.0418	0.04715	0.001678	-0.02243
24.645	0.007324	-0.19394	0.017395	0.002441	-0.010834	0.010071	-0.012054	0.024872	-0.048981	0.041199	0.034485	-0.20157	0.040741	0.082092	0.018158	0.13351	0.03952	-0.035553	0.43228	-0.006104	-0.036621	-0.11475	-0.13321	0.038452	-0.28961	-0.024414	-0.066376	0.039673	2.1176	-0.22964	0.001526	-0.024261
24.646	0.012207	-0.21179	0.036011	0.00351	-0.000916	0.014954	-0.006104	0.013275	-0.043945	-0.030212	-0.021362	0.34622	0.33203	0.20218	0.031433	0.093842	0.04776	0.051422	-0.053406	0.045776	-0.06897	-0.074158	0.20233	0.072174	-0.53802	-0.011749	0.11978	-0.003357	0.27618	-0.36407	-0.002594	-0.019226
24.647	0.00885	-0.19943	0.026855	0.005188	-0.009918	0.010071	0.037384	0.023499	-0.050812	-0.040131	-0.020752	0.00351	0.093536	0.26703	0.015411	0.1001	0.033417	0.015869	-0.49301	0.15076	-0.059052	-0.035553	0.24857	0.050964	-0.37079	-0.008087	-0.039673	-0.02121	0.47058	-0.12787	0.001373	-0.023346
24.648	0.009155	-0.20401	0.009766	-0.003357	-0.014191	0.007477	0.041504	0.014496	-0.043182	-0.010376	-0.026398	-0.027161	-0.24445	0.21912	-0.033875	0.028839	0.036163	-0.013123	-0.82413	0.15198	0.017242	-0.027771	0.2449	0.026703	-0.08667	-0.005035	-0.15961	-0.020447	-0.99121	0.01709	-0.000305	-0.019531
24.649	0.016632	-0.19241	0.010529	0.001373	-0.001526	0.016022	0.034332	0.022736	-0.055084	0.078125	0.004272	-0.017242	-0.20065	0.042114	-0.075684	0.021667	0.063171	-0.019073	-0.44311	-0.012665	0.057983	0.036011	0.22308	-0.01236	-0.056763	-0.007935	-0.38406	-0.012817	-0.82993	0.21469	0.000153	-0.021667
24.65	0.001678	-0.16403	-0.028076	0.00061	-0.02182	0.000916	0.015869	0.022583	-0.036163	0.10132	0.012054	-0.045166	0.1506	-0.093689	-0.069275	0.007324	0.066833	0.037689	0.38284	-0.082245	-0.044861	0.51605	0.065155	-0.050812	-0.099792	-0.001068	-0.32379	-0.017242	-0.2562	0.046997	0.002136	-0.022278
24.651	0.024872	-0.15671	-0.004425	0.000916	0.00061	-0.021362	-0.009155	0.017242	-0.037842	0.093994	0.008087	-0.011902	0.46814	0.084991	-0.034637	0.010834	0.063629	0.021362	0.87952	-0.13306	-0.34546	0.63141	0.065155	-0.19623	-0.089874	-0.003967	-0.17029	-0.007172	-0.23987	-0.028076	0.001678	-0.013733
24.652	0.010681	-0.15961	-0.02182	0.015411	0.004272	-0.043182	0.019684	0.014954	-0.037231	0.12161	0.003815	-0.013885	0.79529	0.30319	-0.015259	0.012054	0.068359	-0.053253	0.43106	-0.11063	-0.3186	0.45807	-0.015717	-0.27069	-0.14236	0	-0.009766	-0.00885	-0.10574	-0.043335	0.000305	-0.012665
24.653	0.013275	-0.15243	-0.075684	0.026703	0.002136	-0.034943	0.066681	0.026855	-0.030518	0.028687	-0.021667	0.003815	0.70206	0.22736	0.003204	0.02533	-0.011292	-0.046844	-0.1564	-0.087738	-0.007477	0.28946	-0.21027	-0.19119	-0.099792	0.003967	0.1651	-0.003357	-0.57327	0.027618	0.001831	-0.01236
24.654	0.016632	-0.11322	-0.043488	-0.002136	0.000916	-0.037842	0.13168	0.013428	-0.009155	-0.11017	-0.015564	0.002289	-0.020294	0.31403	0.024872	0.018005	-0.036011	-0.062408	-0.16632	-0.05249	0.18784	0.10056	-0.42511	-0.1709	-0.068359	-0.015564	0.17364	-0.007629	-0.44647	-0.003052	0.001831	-0.00885
24.655	0.006561	-0.11032	-0.07782	0.015259	-0.003967	-0.005188	0.13779	0.023651	-0.010071	-0.098267	-0.006561	0.008392	-0.28137	0.16861	0.024414	0.040131	0.012512	-0.10925	-0.23651	0.016327	0.1532	-0.12344	-0.34271	-0.15686	-0.060272	-0.022278	0.088043	-0.00824	0.1181	0.011444	0.003357	-0.018921
24.656	0.009613	-0.12573	-0.014801	0.01297	-0.003204	-0.004578	0.15671	0.019379	-0.018463	-0.12543	-0.01236	0.013733	-0.39383	0.16617	0.035706	0.048523	0.015717	-0.091705	-0.40024	0.046234	0.11856	-0.28351	-0.11856	-0.023804	-0.053101	-0.032959	0.092163	-0.00946	0.48706	-0.047302	0.001984	-0.012207
24.657	-0.001984	-0.091095	-0.023193	0.001678	-0.000305	0.031738	0.15381	0.018768	-0.031738	0.010681	0.001831	0.02594	-0.18417	-0.012207	-0.023346	0.036011	0.001984	-0.15595	0.39871	-0.040131	0.044098	-0.49057	0.001373	0.25635	-0.051117	-0.04364	0.33951	-0.005188	-0.35843	-0.084534	0.000153	-0.013428
24.658	-0.002594	-0.060577	0.011749	-0.010681	-0.000458	0.044098	0.12878	0.031738	-0.025787	0.045013	0.009003	0.022278	-0.038605	-0.068512	0.036316	-0.000916	-0.039673	-0.15182	1.1177	0.14008	0.13992	-0.45334	0.050812	1.1186	-0.08667	-0.02121	0.34103	-0.002594	0.56671	-0.071716	0.000305	-0.02121
24.659	0.006714	-0.017242	-0.020447	-0.001068	-0.004272	0.06485	0.13794	0.021973	-0.033112	0.049133	-0.007935	-0.18555	-0.12528	0.006104	0.03006	-0.03952	-0.037689	-0.17838	0.52887	0.2092	0.17395	-0.2005	0.031891	1.4417	-0.066223	0.015717	0.13092	-0.003204	-0.38559	-0.19211	0.002899	-0.014954
24.66	0.011139	0.001984	-0.021057	0.012207	-0.002899	0.030518	0.14694	0.024414	-0.026703	-0.034485	-0.019226	-0.54123	-0.23041	0.1648	-0.028992	-0.053253	-0.048676	-0.19501	-0.15152	0.11856	0.12009	-0.036774	-0.07309	1.0365	0.063629	0.014191	-0.33905	-0.005035	2.4077	-0.18936	0.002289	-0.019226
24.661	0.004883	0.013123	-0.010223	0.016174	-0.004578	0.035706	0.092621	0.020905	-0.015717	-0.26916	-0.007629	0.37323	-0.15167	0.18478	0.021362	-0.058136	-0.050812	-0.23086	-0.25665	0.021057	-0.16937	0.094147	-0.27863	0.9082	0.35156	-0.015259	-0.36804	-0.013123	-0.40298	-0.2861	0.000763	-0.021362
24.662	0.019989	-0.031281	-0.11032	-0.003967	-0.000916	0.046844	0.009766	0.024109	-0.00824	-0.070038	0.004272	0.12222	-0.096588	0.13153	0.080872	0.061646	-0.061951	-0.27908	-0.18707	0.033722	-0.052185	0.37674	-0.31662	0.28564	0.35202	-0.0383	-0.22797	-0.016022	-1.6899	0.008545	0.001526	-0.023041
